<?xml version="1.0"?>
<svg xmlns="http://www.w3.org/2000/svg" height="512px" viewBox="-34 0 438 438.112" width="512px"><path d="m188.464844 262.023438c-.953125.089843-1.960938.089843-2.976563.089843-.449219 0-.878906-.082031-1.328125-.097656-.449218-.015625-1.105468.039063-1.648437 0l-13.421875 7.753906-14.867188 168.34375h62.53125l-14.867187-168.34375zm0 0" fill="#D80027"/><path d="m155.96875 201.648438c-1.640625 3.949218-2.480469 8.1875-2.480469 12.464843-.046875 10.054688 4.707031 19.53125 12.800781 25.503907 4.382813 3.375 9.597657 5.507812 15.09375 6.167968l.371094.0625c1.011719.148438 2.035156.234375 3.0625.265625 1.382813.054688 2.773438-.015625 4.144532-.21875 5.699218-.59375 11.128906-2.746093 15.6875-6.222656 8.117187-5.980469 12.886718-15.476563 12.839843-25.558594.003907-4.296875-.84375-8.554687-2.496093-12.519531-1.046876-2.367188-2.355469-4.609375-3.902344-6.683594-4.511719-5.972656-10.960938-10.195312-18.242188-11.941406-2.410156-.574219-4.882812-.863281-7.359375-.855469-10.0625.035157-19.535156 4.769531-25.601562 12.796875-1.558594 2.089844-2.871094 4.351563-3.917969 6.738282zm29.519531-3.535157c8.835938 0 16 7.164063 16 16 0 8.835938-7.164062 16-16 16-8.835937 0-16-7.164062-16-16 0-8.835937 7.164063-16 16-16zm0 0" fill="#D80027"/><path d="m217.089844 260.0625 69.277344 40c20.375 11.734375 43.183593 18.601562 66.648437 20.066406l17.878906 1.054688-9.847656-14.902344c-12.980469-19.632812-30.328125-35.996094-50.6875-47.808594l-76.871094-44.320312c0 .800781-.105469 1.601562-.144531 2.398437-.046875 1.074219-.0625 2.160157-.183594 3.203125-.039062.34375-.136718.679688-.183594 1.03125-1.707031 12.640625-8.445312 24.058594-18.6875 31.664063-1.535156 1.160156-3.140624 2.230469-4.800781 3.199219l7.617188 4.390624zm0 0" fill="#D80027"/><path d="m137.816406 219.792969c-.121094-1.058594-.128906-2.136719-.183594-3.199219 0-.800781-.144531-1.601562-.144531-2.402344l-76.886719 44.328125c-20.335937 11.8125-37.675781 28.144531-50.679687 47.738281l-9.8671875 14.925782 17.8398435-1.054688c23.484375-1.460937 46.3125-8.324218 66.707031-20.058594l69.285157-40 4.617187-2.65625 2.984375-1.757812c-1.695312-.984375-3.324219-2.074219-4.878906-3.265625-10.191406-7.566406-16.90625-18.917969-18.625-31.496094-.023437-.382812-.121094-.734375-.167969-1.101562zm0 0" fill="#D80027"/><path d="m168.046875 169.480469c1.113281-.433594 2.242187-.800781 3.386719-1.160157.742187-.222656 1.488281-.480468 2.246094-.671874 1.28125-.328126 2.578124-.570313 3.878906-.800782.65625-.113281 1.296875-.261718 1.953125-.351562 3.964843-.535156 7.984375-.535156 11.953125 0 .65625.089844 1.296875.238281 1.941406.351562 1.3125.214844 2.609375.457032 3.898438.800782.75.191406 1.480468.441406 2.222656.671874 1.152344.351563 2.289062.726563 3.410156 1.167969.796875.296875 1.503906.632813 2.253906.96875 1.066406.480469 2.105469.992188 3.136719 1.550781.375.207032.800781.359376 1.160156.578126v-88.875c-.03125-23.496094-5.496093-46.671876-15.960937-67.710938l-8-16-8 16c-10.515625 21.050781-15.992188 44.261719-16 67.792969v88.800781c.382812-.226562.800781-.378906 1.183594-.59375 1.015624-.542969 2.050781-1.046875 3.097656-1.527344.710937-.359375 1.472656-.6875 2.238281-.992187zm0 0" fill="#D80027"/><path d="m19.199219 246.230469c2.324219.003906 4.535156-1.003907 6.054687-2.757813 1.523438-1.753906 2.207032-4.085937 1.875-6.382812-1.09375-7.613282-1.640625-15.289063-1.640625-22.976563-.132812-64.816406 38.949219-123.273437 98.894531-147.921875 3.964844-1.757812 5.804688-6.355468 4.152344-10.363281-1.65625-4.011719-6.203125-5.96875-10.253906-4.421875-65.945312 27.109375-108.9375 91.410156-108.792969 162.707031 0 8.449219.601563 16.890625 1.800781 25.253907.5625 3.9375 3.933594 6.863281 7.910157 6.863281zm0 0" fill="#D80027"/><path d="m132.128906 365c-16.550781-5.855469-32.019531-14.398438-45.785156-25.289062-3.46875-2.671876-8.441406-2.054688-11.15625 1.378906-2.714844 3.4375-2.164062 8.414062 1.238281 11.175781 15.152344 11.984375 32.179688 21.386719 50.398438 27.824219 4.121093 1.324218 8.550781-.871094 9.992187-4.953125s-.625-8.570313-4.664062-10.128907zm0 0" fill="#D80027"/><path d="m284.777344 339.59375c-13.765625 10.917969-29.242188 19.484375-45.800782 25.359375-2.726562.929687-4.742187 3.253906-5.277343 6.082031-.535157 2.832032.492187 5.730469 2.691406 7.59375 2.195313 1.859375 5.226563 2.398438 7.929687 1.402344 18.222657-6.457031 35.253907-15.882812 50.398438-27.894531 3.464844-2.746094 4.050781-7.777344 1.304688-11.242188-2.742188-3.460937-7.777344-4.046875-11.238282-1.300781zm0 0" fill="#D80027"/><path d="m246.566406 66.175781c59.960938 24.644531 99.054688 83.109375 98.921875 147.9375.011719 7.6875-.519531 15.363281-1.601562 22.976563-.628907 4.371094 2.40625 8.429687 6.78125 9.058594 4.375.628906 8.429687-2.40625 9.058593-6.78125 1.1875-8.367188 1.773438-16.804688 1.761719-25.253907.148438-71.304687-42.851562-135.613281-108.800781-162.722656-4.050781-1.546875-8.597656.410156-10.253906 4.421875-1.652344 4.007812.1875 8.605469 4.152344 10.363281zm0 0" fill="#D80027"/></svg>
